<?xml version="1.0" encoding="UTF-8" standalone="no"?>
<!-- Created with Inkscape (http://www.inkscape.org/) -->

<svg
   width="1122.52"
   height="793.70081"
   viewBox="10 10 1920.0006 1357.5758"
   version="1.1"
   id="svg1"
   inkscape:version="1.4.2 (ebf0e940d0, 2025-05-08)"
   inkscape:export-filename="JMerchant.png"
   inkscape:export-xdpi="96"
   inkscape:export-ydpi="96"
   sodipodi:docname="D-JMerchant.svg"
   xmlns:inkscape="http://www.inkscape.org/namespaces/inkscape"
   xmlns:sodipodi="http://sodipodi.sourceforge.net/DTD/sodipodi-0.dtd"
   xmlns="http://www.w3.org/2000/svg"
   xmlns:svg="http://www.w3.org/2000/svg">
  <sodipodi:namedview
     id="namedview1"
     pagecolor="#ffffff"
     bordercolor="#000000"
     borderopacity="0.25"
     inkscape:showpageshadow="false"
     inkscape:pageopacity="0.0"
     inkscape:pagecheckerboard="0"
     inkscape:deskcolor="#d1d1d1"
     inkscape:document-units="px"
     showborder="false"
     showguides="true"
     inkscape:zoom="0.5"
     inkscape:cx="323"
     inkscape:cy="503"
     inkscape:current-layer="layer1"
     showgrid="false"
     inkscape:window-width="1920"
     inkscape:window-height="1008"
     inkscape:window-x="0"
     inkscape:window-y="0"
     inkscape:window-maximized="1"
     inkscape:export-bgcolor="#000000ff">
    <inkscape:grid
       id="grid1"
       units="px"
       originx="0"
       originy="0"
       spacingx="1.7104377"
       spacingy="1.7104377"
       empcolor="#0099e5"
       empopacity="0.30196078"
       color="#0099e5"
       opacity="0.14901961"
       empspacing="5"
       enabled="true"
       visible="false" />
  </sodipodi:namedview>
  <defs
     id="defs1">
    <inkscape:path-effect
       effect="bend_path"
       id="path-effect96"
       is_visible="true"
       lpeversion="1"
       bendpath="m 1012.4203,714.63019 h 74.8282"
       prop_scale="1"
       scale_y_rel="false"
       vertical="false"
       hide_knot="false" />
    <inkscape:path-effect
       effect="transform_2pts"
       start="1049.8359,677.39476"
       end="1061.6987,719.69135"
       id="path-effect95"
       is_visible="true"
       lpeversion="1"
       first_knot="1"
       last_knot="183"
       helper_size="3"
       stretch="1"
       offset="0"
       elastic="false"
       from_original_width="false"
       flip_vertical="false"
       flip_horizontal="false"
       lock_length="false"
       lock_angle="false" />
    <inkscape:path-effect
       effect="fillet_chamfer"
       id="path-effect94"
       is_visible="true"
       lpeversion="1"
       nodesatellites_param="F,0,0,1,0,1.2175588,0,1 @ F,0,0,1,0,0,0,1 @ F,0,0,1,0,0,0,1"
       radius="0"
       unit="px"
       method="auto"
       mode="F"
       chamfer_steps="1"
       flexible="false"
       use_knot_distance="true"
       apply_no_radius="true"
       apply_with_radius="true"
       only_selected="false"
       hide_knots="false" />
    <inkscape:path-effect
       effect="fillet_chamfer"
       id="path-effect93"
       is_visible="true"
       lpeversion="1"
       nodesatellites_param="F,0,0,1,0,0,0,1 @ F,0,0,1,0,0,0,1 @ F,0,0,1,0,0,0,1 @ F,0,0,1,0,0,0,1 @ F,0,0,1,0,0,0,1 @ F,0,0,1,0,0,0,1 @ F,0,0,1,0,0,0,1 @ F,0,0,1,0,0,0,1 @ F,0,0,1,0,0,0,1 @ F,0,0,1,0,0,0,1 @ F,0,0,1,0,0,0,1 @ F,0,0,1,0,0,0,1 @ F,0,0,1,0,0,0,1 @ F,0,0,1,0,0,0,1 @ F,0,0,1,0,0,0,1 @ F,0,0,1,0,0,0,1 @ F,0,0,1,0,0,0,1 @ F,0,0,1,0,0,0,1 @ F,0,0,1,0,0,0,1 @ F,0,0,1,0,0,0,1 @ F,0,0,1,0,0,0,1 @ F,0,0,1,0,0,0,1 @ F,0,0,1,0,0,0,1 @ F,0,0,1,0,0,0,1 @ F,0,0,1,0,0,0,1 @ F,0,0,1,0,0,0,1 @ F,0,0,1,0,0,0,1 @ F,0,0,1,0,0,0,1 @ F,0,0,1,0,0,0,1 @ F,0,0,1,0,0,0,1 @ F,0,0,1,0,0,0,1 @ F,0,0,1,0,0,0,1 @ F,0,0,1,0,0,0,1 @ F,0,0,1,0,0,0,1 @ F,0,0,1,0,0,0,1 @ F,0,0,1,0,0,0,1 @ F,0,0,1,0,0,0,1 @ F,0,0,1,0,0,0,1 @ F,0,0,1,0,0,0,1 @ F,0,0,1,0,0,0,1 @ F,0,0,1,0,0,0,1 @ F,0,0,1,0,0,0,1 @ F,0,0,1,0,0,0,1 @ F,0,0,1,0,0,0,1 @ F,0,0,1,0,0,0,1 @ F,0,0,1,0,0,0,1 @ F,0,0,1,0,0,0,1 @ F,0,0,1,0,0,0,1 @ F,0,0,1,0,0,0,1 @ F,0,0,1,0,0,0,1 @ F,0,0,1,0,0,0,1 @ F,0,0,1,0,0,0,1 @ F,0,0,1,0,0,0,1 @ F,0,0,1,0,0,0,1 @ F,0,0,1,0,0,0,1 @ F,0,0,1,0,0,0,1 @ F,0,0,1,0,0,0,1 @ F,0,0,1,0,0,0,1 @ F,0,0,1,0,0,0,1 @ F,0,0,1,0,0,0,1 @ F,0,0,1,0,0,0,1 @ F,0,0,1,0,0,0,1 @ F,0,0,1,0,0,0,1 @ F,0,0,1,0,0,0,1 @ F,0,0,1,0,0,0,1 @ F,0,0,1,0,0,0,1 @ F,0,0,1,0,0,0,1 @ F,0,0,1,0,0,0,1 @ F,0,0,1,0,0,0,1 @ F,0,0,1,0,0,0,1 @ F,0,0,1,0,0,0,1 @ F,0,0,1,0,0,0,1 @ F,0,0,1,0,0,0,1 @ F,0,0,1,0,0,0,1 @ F,0,0,1,0,0,0,1 @ F,0,0,1,0,0,0,1 @ F,0,0,1,0,0,0,1 @ F,0,0,1,0,0,0,1 @ F,0,0,1,0,0,0,1 @ F,0,0,1,0,0,0,1 @ F,0,0,1,0,0,0,1 @ F,0,0,1,0,0,0,1 @ F,0,0,1,0,0,0,1 @ F,0,0,1,0,0,0,1 @ F,0,0,1,0,0,0,1 @ F,0,0,1,0,0,0,1 @ F,0,0,1,0,0,0,1 @ F,0,0,1,0,0,0,1 @ F,0,0,1,0,0,0,1 @ F,0,0,1,0,1.19263,0,1 @ F,0,0,1,0,0,0,1 @ F,0,0,1,0,0,0,1 @ F,0,0,1,0,0,0,1 @ F,0,0,1,0,0,0,1 @ F,0,0,1,0,0,0,1 @ F,0,0,1,0,0,0,1 @ F,0,0,1,0,0,0,1 @ F,0,0,1,0,2.0829255,0,1 @ F,0,0,1,0,0,0,1 @ F,0,0,1,0,0,0,1 @ F,0,0,1,0,0,0,1 @ F,0,0,1,0,0,0,1 @ F,0,0,1,0,0,0,1 @ F,0,0,1,0,0,0,1 @ F,0,0,1,0,0,0,1 @ F,0,0,1,0,0,0,1 @ F,0,0,1,0,0,0,1 @ F,0,0,1,0,0,0,1 @ F,0,0,1,0,0,0,1 @ F,0,0,1,0,0,0,1 @ F,0,0,1,0,0,0,1 @ F,0,0,1,0,0,0,1 @ F,0,0,1,0,0,0,1 @ F,0,0,1,0,0,0,1 @ F,0,0,1,0,0,0,1 @ F,0,0,1,0,0,0,1 @ F,0,0,1,0,0,0,1 @ F,0,0,1,0,0,0,1 @ F,0,0,1,0,0,0,1 @ F,0,0,1,0,0,0,1 @ F,0,0,1,0,0,0,1 @ F,0,0,1,0,0,0,1 @ F,0,0,1,0,0,0,1 @ F,0,0,1,0,0,0,1 @ F,0,0,1,0,0,0,1 @ F,0,0,1,0,0,0,1 @ F,0,0,1,0,0,0,1 @ F,0,0,1,0,0,0,1 @ F,0,0,1,0,0,0,1 @ F,0,0,1,0,0,0,1 @ F,0,0,1,0,0,0,1 @ F,0,0,1,0,0,0,1 @ F,0,0,1,0,0,0,1 @ F,0,0,1,0,0,0,1 @ F,0,0,1,0,0,0,1 @ F,0,0,1,0,0,0,1 @ F,0,0,1,0,0,0,1 @ F,0,0,1,0,0,0,1 @ F,0,0,1,0,0,0,1 @ F,0,0,1,0,0,0,1 @ F,0,0,1,0,0,0,1 @ F,0,0,1,0,0,0,1 @ F,0,0,1,0,0,0,1 @ F,0,0,1,0,0,0,1 @ F,0,0,1,0,0,0,1 @ F,0,0,1,0,0,0,1 @ F,0,0,1,0,0,0,1 @ F,0,0,1,0,0,0,1 @ F,0,0,1,0,0,0,1 @ F,0,0,1,0,0,0,1 @ F,0,0,1,0,0,0,1 @ F,0,0,1,0,0,0,1 @ F,0,0,1,0,0,0,1 @ F,0,0,1,0,0,0,1 @ F,0,0,1,0,0,0,1 @ F,0,0,1,0,0,0,1 @ F,0,0,1,0,0,0,1 @ F,0,0,1,0,0,0,1 @ F,0,0,1,0,0,0,1 @ F,0,0,1,0,0,0,1 @ F,0,0,1,0,0,0,1 @ F,0,0,1,0,0,0,1 @ F,0,0,1,0,0,0,1 @ F,0,0,1,0,0,0,1 @ F,0,0,1,0,4.787247,0,1 @ F,0,0,1,0,0,0,1 @ F,0,0,1,0,0,0,1 @ F,0,0,1,0,0,0,1 @ F,0,0,1,0,0,0,1 @ F,0,0,1,0,0,0,1 @ F,0,0,1,0,0,0,1 @ F,0,0,1,0,0,0,1 @ F,0,0,1,0,0,0,1 @ F,0,0,1,0,0,0,1 @ F,0,0,1,0,0,0,1 @ F,0,0,1,0,0,0,1 @ F,0,0,1,0,0,0,1 @ F,0,0,1,0,0,0,1 @ F,0,0,1,0,3.3585948,0,1 @ F,0,0,1,0,0,0,1 | F,0,0,1,0,0,0,1 @ F,0,0,1,0,0,0,1 @ F,0,0,1,0,0,0,1"
       radius="0"
       unit="px"
       method="auto"
       mode="F"
       chamfer_steps="1"
       flexible="false"
       use_knot_distance="true"
       apply_no_radius="true"
       apply_with_radius="true"
       only_selected="false"
       hide_knots="false" />
    <inkscape:path-effect
       effect="fillet_chamfer"
       id="path-effect92"
       is_visible="true"
       lpeversion="1"
       nodesatellites_param="F,0,0,1,0,0,0,1 @ F,0,0,1,0,0,0,1 @ F,0,0,1,0,0,0,1 @ F,0,0,1,0,0,0,1 @ F,0,0,1,0,0,0,1 @ F,0,0,1,0,0,0,1 @ F,0,0,1,0,0,0,1 @ F,0,0,1,0,0,0,1 @ F,0,0,1,0,0,0,1 @ F,0,0,1,0,0,0,1 @ F,0,0,1,0,0,0,1 @ F,0,0,1,0,0,0,1 @ F,0,0,1,0,0,0,1 @ F,0,0,1,0,0,0,1 @ F,0,0,1,0,0,0,1 @ F,0,0,1,0,0,0,1 @ F,0,0,1,0,0,0,1 @ F,0,0,1,0,0,0,1 @ F,0,0,1,0,0,0,1 @ F,0,0,1,0,0,0,1 @ F,0,0,1,0,0,0,1 @ F,0,0,1,0,0,0,1 @ F,0,0,1,0,0,0,1 @ F,0,0,1,0,0,0,1 @ F,0,0,1,0,0,0,1 @ F,0,0,1,0,0,0,1 @ F,0,0,1,0,0,0,1 @ F,0,0,1,0,0,0,1 @ F,0,0,1,0,0,0,1 @ F,0,0,1,0,0,0,1 @ F,0,0,1,0,0,0,1 @ F,0,0,1,0,0,0,1 @ F,0,0,1,0,0,0,1 @ F,0,0,1,0,0,0,1 @ F,0,0,1,0,0,0,1 @ F,0,0,1,0,0,0,1 @ F,0,0,1,0,0,0,1 @ F,0,0,1,0,0,0,1 @ F,0,0,1,0,0,0,1 @ F,0,0,1,0,0,0,1 @ F,0,0,1,0,0,0,1 @ F,0,0,1,0,0,0,1 @ F,0,0,1,0,0,0,1 @ F,0,0,1,0,0,0,1 @ F,0,0,1,0,0,0,1 @ F,0,0,1,0,0,0,1 @ F,0,0,1,0,0,0,1 @ F,0,0,1,0,0,0,1 @ F,0,0,1,0,0,0,1 @ F,0,0,1,0,0,0,1 @ F,0,0,1,0,0,0,1 @ F,0,0,1,0,0,0,1 @ F,0,0,1,0,0,0,1 @ F,0,0,1,0,0,0,1 @ F,0,0,1,0,0,0,1 @ F,0,0,1,0,0,0,1 @ F,0,0,1,0,0,0,1 @ F,0,0,1,0,0,0,1 @ F,0,0,1,0,0,0,1 @ F,0,0,1,0,0,0,1 @ F,0,0,1,0,0,0,1 @ F,0,0,1,0,0,0,1 @ F,0,0,1,0,0,0,1 @ F,0,0,1,0,0,0,1 @ F,0,0,1,0,0,0,1 @ F,0,0,1,0,0,0,1 @ F,0,0,1,0,0,0,1 @ F,0,0,1,0,0,0,1 @ F,0,0,1,0,0,0,1 @ F,0,0,1,0,0,0,1 @ F,0,0,1,0,0,0,1 @ F,0,0,1,0,0,0,1 @ F,0,0,1,0,0,0,1 @ F,0,0,1,0,0,0,1 @ F,0,0,1,0,0,0,1 @ F,0,0,1,0,0,0,1 @ F,0,0,1,0,0,0,1 @ F,0,0,1,0,0,0,1 @ F,0,0,1,0,0,0,1 @ F,0,0,1,0,0,0,1 @ F,0,0,1,0,0,0,1 @ F,0,0,1,0,0,0,1 @ F,0,0,1,0,0,0,1 @ F,0,0,1,0,0,0,1 @ F,0,0,1,0,0,0,1 @ F,0,0,1,0,0,0,1 @ F,0,0,1,0,0,0,1 @ F,0,0,1,0,0,0,1 @ F,0,0,1,0,0,0,1 @ F,0,0,1,0,0,0,1 @ F,0,0,1,0,0,0,1 @ F,0,0,1,0,0,0,1 @ F,0,0,1,0,0,0,1 @ F,0,0,1,0,0,0,1 @ F,0,0,1,0,0,0,1 @ F,0,0,1,0,0,0,1 @ F,0,0,1,0,0,0,1 @ F,0,0,1,0,0,0,1 @ F,0,0,1,0,0,0,1 @ F,0,0,1,0,0,0,1 @ F,0,0,1,0,0,0,1 @ F,0,0,1,0,0,0,1 @ F,0,0,1,0,0,0,1 @ F,0,0,1,0,0,0,1 @ F,0,0,1,0,0,0,1 @ F,0,0,1,0,0,0,1 @ F,0,0,1,0,0,0,1 @ F,0,0,1,0,0,0,1 @ F,0,0,1,0,0,0,1 @ F,0,0,1,0,0,0,1 @ F,0,0,1,0,0,0,1 @ F,0,0,1,0,0,0,1 @ F,0,0,1,0,0,0,1 @ F,0,0,1,0,0,0,1 @ F,0,0,1,0,0,0,1 @ F,0,0,1,0,0,0,1 @ F,0,0,1,0,0,0,1 @ F,0,0,1,0,0,0,1 @ F,0,0,1,0,0,0,1 @ F,0,0,1,0,0,0,1 @ F,0,0,1,0,0,0,1 @ F,0,0,1,0,0,0,1 @ F,0,0,1,0,0,0,1 @ F,0,0,1,0,0,0,1 @ F,0,0,1,0,0,0,1 @ F,0,0,1,0,0,0,1 @ F,0,0,1,0,0,0,1 @ F,0,0,1,0,0,0,1 @ F,0,0,1,0,0,0,1 @ F,0,0,1,0,0,0,1 @ F,0,0,1,0,0,0,1 @ F,0,0,1,0,0,0,1 @ F,0,0,1,0,0,0,1 @ F,0,0,1,0,0,0,1 @ F,0,0,1,0,0,0,1 @ F,0,0,1,0,0,0,1 @ F,0,0,1,0,0,0,1 @ F,0,0,1,0,0,0,1 @ F,0,0,1,0,0,0,1 @ F,0,0,1,0,0,0,1 @ F,0,0,1,0,0,0,1 @ F,0,0,1,0,0,0,1 @ F,0,0,1,0,0,0,1 @ F,0,0,1,0,0,0,1 @ F,0,0,1,0,0,0,1 @ F,0,0,1,0,0,0,1 @ F,0,0,1,0,0,0,1 @ F,0,0,1,0,0,0,1 @ F,0,0,1,0,0,0,1 @ F,0,0,1,0,0,0,1 @ F,0,0,1,0,0,0,1 @ F,0,0,1,0,0,0,1 @ F,0,0,1,0,0,0,1 @ F,0,0,1,0,0,0,1 @ F,0,0,1,0,0,0,1 @ F,0,0,1,0,0,0,1 @ F,0,0,1,0,0,0,1 @ F,0,0,1,0,0,0,1 @ F,0,0,1,0,0,0,1 @ F,0,0,1,0,0,0,1 @ F,0,0,1,0,0,0,1 @ F,0,0,1,0,0,0,1 @ F,0,0,1,0,0,0,1 @ F,0,0,1,0,0,0,1 @ F,0,0,1,0,0,0,1 @ F,0,0,1,0,0,0,1 @ F,0,0,1,0,0,0,1 @ F,0,0,1,0,0,0,1 @ F,0,0,1,0,0,0,1 @ F,0,0,1,0,0,0,1 @ F,0,0,1,0,0,0,1 @ F,0,0,1,0,0,0,1 @ F,0,0,1,0,0,0,1 @ F,0,0,1,0,0,0,1 @ F,0,0,1,0,0,0,1 @ F,0,0,1,0,0,0,1 @ F,0,0,1,0,0,0,1 @ F,0,0,1,0,0,0,1 @ F,0,0,1,0,0,0,1 @ F,0,0,1,0,0,0,1 | F,0,0,1,0,0,0,1 @ F,0,0,1,0,0,0,1 @ F,0,0,1,0,0,0,1"
       radius="0"
       unit="px"
       method="auto"
       mode="F"
       chamfer_steps="1"
       flexible="false"
       use_knot_distance="true"
       apply_no_radius="true"
       apply_with_radius="true"
       only_selected="false"
       hide_knots="false" />
    <inkscape:path-effect
       effect="fillet_chamfer"
       id="path-effect91"
       is_visible="true"
       lpeversion="1"
       nodesatellites_param="F,0,0,1,0,7.6168,0,1 @ F,0,0,1,0,0,0,1 @ F,0,0,1,0,0,0,1 @ F,0,0,1,0,0,0,1 @ F,0,0,1,0,0,0,1 @ F,0,0,1,0,0,0,1 @ F,0,0,1,0,0,0,1 @ F,0,0,1,0,0,0,1 @ F,0,0,1,0,0,0,1 @ F,0,0,1,0,0,0,1 @ F,0,0,1,0,0,0,1 @ F,0,0,1,0,0,0,1 @ F,0,0,1,0,0,0,1 @ F,0,0,1,0,0,0,1 @ F,0,0,1,0,0,0,1 @ F,0,0,1,0,0,0,1 @ F,0,0,1,0,0,0,1 @ F,0,0,1,0,0,0,1 @ F,0,0,1,0,0,0,1 @ F,0,0,1,0,0,0,1 @ F,0,0,1,0,0,0,1 @ F,0,0,1,0,0,0,1 @ F,0,0,1,0,0,0,1 @ F,0,0,1,0,0,0,1 @ F,0,0,1,0,0,0,1 @ F,0,0,1,0,0,0,1 @ F,0,0,1,0,0,0,1 @ F,0,0,1,0,0,0,1 @ F,0,0,1,0,0,0,1 @ F,0,0,1,0,0,0,1 @ F,0,0,1,0,0,0,1 @ F,0,0,1,0,0,0,1 @ F,0,0,1,0,0,0,1 @ F,0,0,1,0,0,0,1 @ F,0,0,1,0,0,0,1 @ F,0,0,1,0,0,0,1 @ F,0,0,1,0,0,0,1 @ F,0,0,1,0,0,0,1 @ F,0,0,1,0,0,0,1 @ F,0,0,1,0,0,0,1 @ F,0,0,1,0,0,0,1 @ F,0,0,1,0,0,0,1 @ F,0,0,1,0,0,0,1 @ F,0,0,1,0,0,0,1 @ F,0,0,1,0,0,0,1 @ F,0,0,1,0,0,0,1 @ F,0,0,1,0,0,0,1 @ F,0,0,1,0,0,0,1 @ F,0,0,1,0,0,0,1 @ F,0,0,1,0,6.9152468,0,1 @ F,0,0,1,0,0,0,1 @ F,0,0,1,0,0,0,1 @ F,0,0,1,0,0,0,1 @ F,0,0,1,0,0,0,1 @ F,0,0,1,0,0,0,1 @ F,0,0,1,0,0,0,1 @ F,0,0,1,0,0,0,1 @ F,0,0,1,0,0,0,1 @ F,0,0,1,0,0,0,1 @ F,0,0,1,0,1.8243559,0,1 @ F,0,0,1,0,0,0,1 @ F,0,0,1,0,0,0,1 @ F,0,0,1,0,0,0,1 @ F,0,0,1,0,0,0,1 @ F,0,0,1,0,0,0,1 @ F,0,0,1,0,0,0,1 @ F,0,0,1,0,0,0,1 @ F,0,0,1,0,0,0,1 @ F,0,0,1,0,0,0,1 @ F,0,0,1,0,0,0,1 @ F,0,0,1,0,0,0,1 @ F,0,0,1,0,0,0,1 @ F,0,0,1,0,0,0,1 @ F,0,0,1,0,0,0,1 @ F,0,0,1,0,0,0,1 @ F,0,0,1,0,0,0,1 @ F,0,0,1,0,0,0,1 @ F,0,0,1,0,0,0,1 @ F,0,0,1,0,0,0,1 @ F,0,0,1,0,0,0,1 @ F,0,0,1,0,0,0,1 @ F,0,0,1,0,0,0,1 @ F,0,0,1,0,0,0,1 @ F,0,0,1,0,0,0,1 @ F,0,0,1,0,0,0,1 @ F,0,0,1,0,0,0,1 @ F,0,0,1,0,0,0,1 @ F,0,0,1,0,0,0,1 @ F,0,0,1,0,0,0,1 @ F,0,0,1,0,0,0,1 @ F,0,0,1,0,0,0,1 @ F,0,0,1,0,0,0,1 @ F,0,0,1,0,0,0,1 @ F,0,0,1,0,0,0,1 @ F,0,0,1,0,0,0,1 @ F,0,0,1,0,0,0,1 @ F,0,0,1,0,0,0,1 @ F,0,0,1,0,0,0,1 @ F,0,0,1,0,0,0,1 @ F,0,0,1,0,0,0,1 @ F,0,0,1,0,0,0,1 @ F,0,0,1,0,0,0,1 @ F,0,0,1,0,0,0,1 @ F,0,0,1,0,0,0,1 @ F,0,0,1,0,0,0,1 @ F,0,0,1,0,0,0,1 @ F,0,0,1,0,0,0,1 @ F,0,0,1,0,0,0,1 @ F,0,0,1,0,0,0,1"
       radius="0"
       unit="px"
       method="auto"
       mode="F"
       chamfer_steps="1"
       flexible="false"
       use_knot_distance="true"
       apply_no_radius="true"
       apply_with_radius="true"
       only_selected="false"
       hide_knots="false" />
    <inkscape:path-effect
       effect="fillet_chamfer"
       id="path-effect90"
       is_visible="true"
       lpeversion="1"
       nodesatellites_param="F,0,0,1,0,3.4262762,0,1 @ F,0,0,1,0,0,0,1 @ F,0,0,1,0,0,0,1 @ F,0,0,1,0,0,0,1 @ F,0,0,1,0,0,0,1 @ F,0,0,1,0,0,0,1 @ F,0,0,1,0,0,0,1 @ F,0,0,1,0,0,0,1 @ F,0,0,1,0,0,0,1 @ F,0,0,1,0,0,0,1 @ F,0,0,1,0,0,0,1 @ F,0,0,1,0,0,0,1 @ F,0,0,1,0,0,0,1 @ F,0,0,1,0,0,0,1 @ F,0,0,1,0,0,0,1 @ F,0,0,1,0,0,0,1 @ F,0,0,1,0,0,0,1 @ F,0,0,1,0,0,0,1 @ F,0,0,1,0,0,0,1 @ F,0,0,1,0,0,0,1 @ F,0,0,1,0,0,0,1 @ F,0,0,1,0,0,0,1 @ F,0,0,1,0,0,0,1 @ F,0,0,1,0,0,0,1 @ F,0,0,1,0,0,0,1 @ F,0,0,1,0,0,0,1 @ F,0,0,1,0,0,0,1 @ F,0,0,1,0,0,0,1 @ F,0,0,1,0,0,0,1 @ F,0,0,1,0,0,0,1 @ F,0,0,1,0,0,0,1 @ F,0,0,1,0,0,0,1 @ F,0,0,1,0,0,0,1 @ F,0,0,1,0,0,0,1 @ F,0,0,1,0,0,0,1 @ F,0,0,1,0,0,0,1 @ F,0,0,1,0,0,0,1 @ F,0,0,1,0,0,0,1 @ F,0,0,1,0,0,0,1 @ F,0,0,1,0,0,0,1 @ F,0,0,1,0,0,0,1 @ F,0,0,1,0,0,0,1 @ F,0,0,1,0,0,0,1 @ F,0,0,1,0,0,0,1 @ F,0,0,1,0,0,0,1 @ F,0,0,1,0,0,0,1 @ F,0,0,1,0,0,0,1 @ F,0,0,1,0,0,0,1 @ F,0,0,1,0,0,0,1 @ F,0,0,1,0,0,0,1 @ F,0,0,1,0,0,0,1 @ F,0,0,1,0,0,0,1 @ F,0,0,1,0,0,0,1 @ F,0,0,1,0,0,0,1 @ F,0,0,1,0,0,0,1 @ F,0,0,1,0,0,0,1 @ F,0,0,1,0,0,0,1 @ F,0,0,1,0,0,0,1 @ F,0,0,1,0,0,0,1 @ F,0,0,1,0,0,0,1 @ F,0,0,1,0,0,0,1 @ F,0,0,1,0,0,0,1 @ F,0,0,1,0,0,0,1 @ F,0,0,1,0,0,0,1 @ F,0,0,1,0,0,0,1 @ F,0,0,1,0,0,0,1 @ F,0,0,1,0,0,0,1 @ F,0,0,1,0,0,0,1 @ F,0,0,1,0,0,0,1 @ F,0,0,1,0,0,0,1 @ F,0,0,1,0,0,0,1 @ F,0,0,1,0,0,0,1 @ F,0,0,1,0,0,0,1 @ F,0,0,1,0,0,0,1 @ F,0,0,1,0,0,0,1 @ F,0,0,1,0,0,0,1 @ F,0,0,1,0,0,0,1 @ F,0,0,1,0,0,0,1 @ F,0,0,1,0,0,0,1 @ F,0,0,1,0,0,0,1 @ F,0,0,1,0,0,0,1 @ F,0,0,1,0,0,0,1 @ F,0,0,1,0,0,0,1 @ F,0,0,1,0,0,0,1 @ F,0,0,1,0,0,0,1 @ F,0,0,1,0,0,0,1 @ F,0,0,1,0,0,0,1 @ F,0,0,1,0,0,0,1 @ F,0,0,1,0,0,0,1 @ F,0,0,1,0,0,0,1 @ F,0,0,1,0,0,0,1 @ F,0,0,1,0,0,0,1 @ F,0,0,1,0,0,0,1 @ F,0,0,1,0,0,0,1 @ F,0,0,1,0,0,0,1 @ F,0,0,1,0,0,0,1 @ F,0,0,1,0,0,0,1 @ F,0,0,1,0,0,0,1 @ F,0,0,1,0,0,0,1 @ F,0,0,1,0,0,0,1 @ F,0,0,1,0,0,0,1 @ F,0,0,1,0,0,0,1 @ F,0,0,1,0,0,0,1 @ F,0,0,1,0,0,0,1 @ F,0,0,1,0,0,0,1 @ F,0,0,1,0,0,0,1 @ F,0,0,1,0,0,0,1 @ F,0,0,1,0,0,0,1 @ F,0,0,1,0,0,0,1"
       radius="1"
       unit="px"
       method="auto"
       mode="F"
       chamfer_steps="1"
       flexible="false"
       use_knot_distance="true"
       apply_no_radius="true"
       apply_with_radius="true"
       only_selected="false"
       hide_knots="false" />
  </defs>
  <g
     inkscape:label="Layer 1"
     inkscape:groupmode="layer"
     id="layer1">
    <rect
       style="opacity:1;fill:#000000;stroke:none;stroke-width:0;stroke-linecap:square;stroke-linejoin:miter;stroke-dasharray:none"
       id="rect106"
       width="1920.0006"
       height="1357.5758"
       x="10"
       y="10" />
    <path
       id="path104"
       style="baseline-shift:baseline;display:inline;overflow:visible;vector-effect:none;fill:#ffffff;stroke-width:9.33619;stroke-linecap:square;stroke-linejoin:bevel;enable-background:accumulate;stop-color:#000000;stop-opacity:1"
       d="m 674.59627,346.10341 -0.39086,0.007 c -34.95898,1.9e-4 -63.12584,28.16687 -63.12584,63.12584 v 7.98762 0.74831 71.85843 h 7.67024 0.65812 63.15591 75.50981 0.62471 3.40083 79.56208 20.92948 66.49661 v 34.55953 53.27078 67.24492 12.60112 78.53314 1.30956 79.84604 39.33004 40.51266 46.69294 l -4.74379,2.12135 c -25.9588,11.59339 -53.53688,19.14177 -81.77697,22.42277 -10.70001,1.2405 -21.44598,1.87135 -32.21769,1.87079 -16.65584,-0.006 -33.29618,-1.49634 -49.68622,-4.45984 -28.60067,-5.16002 -56.19244,-14.74521 -81.84043,-28.41264 h -0.0267 -0.0301 c -9.74286,-5.23732 -19.1408,-11.04824 -28.1955,-17.4017 l -0.0935,-0.0668 -0.0635,-0.0668 c -2.61535,-1.9239 -5.18997,-3.87936 -7.73706,-5.89299 -4.45382,-3.37549 -8.79155,-6.87348 -13.03541,-10.50984 -1.90308,-1.4951 -3.81216,-3.04286 -5.67585,-4.58678 l -0.12694,-0.1236 -0.12361,-0.0935 c -1.60835,-1.45606 -3.23002,-2.93663 -4.80392,-4.42977 l -0.0267,-0.0635 -0.0301,-0.0301 c -7.69293,-7.13826 -14.9889,-14.6863 -21.83147,-22.64325 l -0.0267,-0.0668 -0.0301,-0.0267 c -7.62281,-9.11053 -14.64932,-18.68805 -21.05309,-28.69326 l -0.0267,-0.0301 -0.0301,-0.0267 c -1.91112,-3.05677 -3.75737,-6.16554 -5.5489,-9.29382 v -0.0301 c -2.25496,-3.9718 -4.42985,-7.99264 -6.48763,-12.06994 -2.02755,-3.58453 -3.96544,-7.2133 -5.83286,-10.884 l -0.0301,-0.0935 -0.0267,-0.0668 c -1.42163,-2.94025 -2.79784,-5.89792 -4.11574,-8.88626 v -0.0301 c -4.25095,-9.78022 -7.93383,-19.80163 -11.04101,-30.00282 -0.38185,-1.09933 -0.78803,-2.23028 -1.15588,-3.33736 l -0.0635,-0.22048 -0.0668,-0.21715 c -2.55914,-9.48472 -4.59598,-19.08557 -6.14354,-28.7868 l -1.49663,-9.23369 h 69.23932 13.25589 0.0935 66.15251 17.55872 l -5.76939,7.98427 h 1.77725 l 10.2927,-4.05227 -6.20702,-3.932 h 53.86542 v -7.29609 c 0,-31.34148 -25.20652,-56.57817 -56.548,-56.57807 h -2.21489 l 6.24043,-4.42977 -12.72806,-3.52443 6.33396,7.9542 h -12.60112 -68.77496 -0.34075 -10.38623 -62.13032 -0.31068 -0.0668 -70.05111 c -0.73195,8.39912 -1.52578,16.78196 -1.5267,24.95168 v 0.0267 c 0.0467,14.64102 1.04005,29.24645 2.9632,43.75982 l 0.0635,0.31068 v 0.31069 c 0.0281,0.46494 0.0562,0.9988 0.0935,1.53004 1.1198,6.76463 2.4369,13.49293 3.96207,20.17782 l 0.0668,0.22048 0.0267,0.21715 c 0.97236,5.74343 2.10238,11.46837 3.36743,17.15449 2.11099,7.64679 4.47376,15.22544 7.11235,22.70672 l 0.0635,0.18708 0.0668,0.18708 c 1.58239,5.36999 3.30356,10.71312 5.14802,15.99861 0.0962,0.2138 0.21171,0.40811 0.31069,0.62471 l 0.0635,0.15701 0.0668,0.18708 c 3.43488,8.44748 7.19157,16.74287 11.29156,24.88821 l 0.0935,0.15701 0.0935,0.21714 c 1.60181,3.65119 3.29229,7.26118 5.02107,10.85393 v 0.0267 0.0301 h 0.0267 v 0.0267 c 6.37837,12.06607 13.46406,23.74725 21.24016,34.96375 1.62236,2.32994 3.28126,4.63679 4.96094,6.92527 3.49575,4.5188 7.10239,8.94827 10.82052,13.28596 l 0.12695,0.15701 0.1236,0.12361 c 2.83765,3.63981 5.74978,7.2387 8.73259,10.76039 5.39287,5.94557 10.98172,11.69737 16.78033,17.24803 l 0.12361,0.1236 0.0935,0.0935 c 2.73654,2.84407 5.55811,5.6441 8.39183,8.39184 l 0.0267,0.0635 c 8.77452,8.04162 17.97458,15.62494 27.54072,22.70673 2.2883,1.68471 4.59542,3.3638 6.92527,4.99101 h 0.0267 v 0.0267 h 0.0301 0.0267 l 0.0935,0.0668 c 6.42048,4.24796 12.98712,8.26574 19.68006,12.06995 l 0.15701,0.1236 0.21715,0.12695 c 4.04023,2.60023 8.11062,5.08916 12.25702,7.51657 h 0.0301 c 12.35402,6.771 25.10875,12.8025 38.20423,17.9963 25.01333,9.8216 51.10862,16.6616 77.72469,20.3649 15.62083,2.1852 31.3545,3.2708 47.12724,3.2773 10.20259,3e-4 20.43531,-0.4601 30.59746,-1.3731 26.41785,-2.3802 52.47555,-7.8367 77.63115,-16.2491 26.0669,-8.7165 50.85228,-20.7454 74.07334,-35.43146 v -1.8708 -79.84603 -12.66459 -67.18145 -66.49327 -13.34943 -79.84604 -27.29017 -52.55587 -79.8427 -1.27949 -70.58228 h -71.54777 -79.43847 c -20.91848,0.35945 -21.22173,-0.0842 -31.03509,0.4677 l -0.24721,0.0301 h -0.22049 c -15.60142,-0.005 -31.06094,1.68576 -46.62613,4.4899 -26.96767,4.86536 -53.00991,13.90529 -77.19353,26.79241 l -11.75926,6.26715 v -46.03483 -52.616 z m 135.75264,301.42122 c -1.82868,0.006 -3.67911,0.13421 -5.49211,0.37416 h -0.0635 c -0.39211,0.0654 -0.79523,0.14435 -1.18594,0.21715 -1.32798,0.20073 -2.62534,0.45683 -3.92867,0.78172 l -0.0935,0.0267 c -0.72542,0.19886 -1.43738,0.41765 -2.15141,0.65478 -0.93903,0.29223 -1.8594,0.61347 -2.77612,0.9688 h -0.0301 c -0.75809,0.30249 -1.50516,0.62032 -2.24495,0.96547 -0.92802,0.42387 -1.81721,0.88484 -2.71265,1.37302 l -0.0301,0.0267 c -0.70487,0.394 -1.40639,0.783 -2.08793,1.21601 -0.44161,0.28288 -0.87907,0.57652 -1.30956,0.87527 -0.29409,0.18766 -0.58677,0.39617 -0.87526,0.5913 l -0.1236,0.0668 c -0.82812,0.60871 -1.61998,1.23481 -2.40197,1.90086 -0.76557,0.63953 -1.49572,1.30667 -2.21488,1.99774 l -0.0267,0.0267 c -0.63487,0.61806 -1.24555,1.24795 -1.84072,1.9042 -0.65446,0.68714 -1.29372,1.39248 -1.90086,2.12135 l -0.0668,0.0935 c -0.65913,0.85986 -1.27821,1.74235 -1.87079,2.64917 -0.46214,0.64513 -0.9177,1.29445 -1.34296,1.96433 l -0.0635,0.12695 c -0.56484,0.97413 -1.10394,1.9477 -1.59017,2.9632 -0.36038,0.6862 -0.67582,1.38334 -0.99887,2.08793 l -0.0301,0.0668 c -2.29558,5.34152 -3.48469,11.09002 -3.49103,16.90393 3.6e-4,23.67929 19.26876,42.94766 42.94803,42.94803 13.12686,2e-4 25.50811,-6.0166 33.65085,-16.31264 5.99654,-7.58284 9.26395,-16.96805 9.26376,-26.63539 1.9e-4,-9.66742 -3.26722,-19.05245 -9.26376,-26.63539 -1.04472,-1.30547 -2.1443,-2.56672 -3.33401,-3.74158 h -0.0301 c -0.39865,-0.38186 -0.80252,-0.78888 -1.21601,-1.15588 l -0.0668,-0.0635 c -0.78237,-0.72822 -1.59766,-1.39359 -2.43203,-2.06122 -0.47335,-0.37905 -0.94461,-0.76341 -1.43316,-1.12247 l -0.15701,-0.0935 c -0.30623,-0.19792 -0.62338,-0.40083 -0.93539,-0.5913 l -0.12361,-0.0935 c -0.50415,-0.34076 -1.04195,-0.67958 -1.56011,-0.99887 h -0.0301 c -0.57324,-0.36411 -1.12429,-0.72215 -1.71378,-1.059 l -0.0935,-0.0301 c -0.88974,-0.47895 -1.79135,-0.92463 -2.71265,-1.33962 -0.74408,-0.35383 -1.5154,-0.71768 -2.27835,-1.02894 l -0.0935,-0.0301 c -0.93922,-0.34638 -1.90851,-0.65605 -2.86966,-0.9354 l 0.18707,0.0301 c -0.65446,-0.22872 -1.32966,-0.42772 -1.99439,-0.62471 l -0.15702,-0.0267 c -1.1067,-0.26422 -2.21319,-0.4826 -3.33735,-0.65812 -2.39203,-0.42853 -4.836,-0.66618 -7.26602,-0.68484 z m 0,6.04333 v 0.003 c 2.07628,0.0187 4.16312,0.19527 6.20701,0.56123 h 0.0635 c 0.94537,0.14567 1.9084,0.34277 2.83959,0.56124 0.55831,0.16525 1.10393,0.33977 1.65365,0.53117 l 0.15367,0.0635 c 0.82626,0.23994 1.65824,0.51489 2.46543,0.81179 0.65074,0.26701 1.26666,0.53749 1.90086,0.84185 l 0.0668,0.0301 c 0.79172,0.35664 1.57386,0.74081 2.33849,1.15254 0.49669,0.28474 0.98341,0.56811 1.46656,0.87526 l 0.0635,0.0635 c 0.49762,0.3053 0.95391,0.60741 1.4365,0.9354 l 0.15701,0.0935 c 0.25675,0.15498 0.52538,0.3062 0.77838,0.4677 0.42014,0.3081 0.80998,0.64334 1.21602,0.9688 0.73476,0.58818 1.46398,1.19533 2.15141,1.83738 l 0.0668,0.0668 c 0.37158,0.32862 0.73371,0.6553 1.09241,0.99887 1.00886,0.99907 1.94913,2.04179 2.83625,3.15028 5.15433,6.51786 7.95438,14.58089 7.9542,22.89046 9e-5,8.30949 -2.79987,16.37592 -7.9542,22.89381 -7.00092,8.8522 -17.65775,14.0044 -28.94381,14.00421 -20.41747,-2.8e-4 -36.89773,-16.48053 -36.89802,-36.89802 0.006,-4.99681 1.02369,-9.94125 2.99661,-14.53204 0.28008,-0.60778 0.59256,-1.21874 0.90533,-1.81065 l 0.0635,-0.0935 c 0.40238,-0.84026 0.81483,-1.65433 1.27949,-2.4621 l 0.0267,-0.0301 v -0.0267 h 0.0301 v -0.0267 c 0.36879,-0.57604 0.75286,-1.13192 1.15254,-1.68705 l 0.0668,-0.1236 c 0.48828,-0.74689 1.01927,-1.47537 1.56011,-2.18482 l 0.0267,-0.0267 0.0267,-0.0267 v -0.0301 c 0.51256,-0.61152 1.04212,-1.20008 1.59352,-1.77725 l 0.0635,-0.0668 c 0.51162,-0.5639 1.04476,-1.11898 1.59017,-1.65031 0.61806,-0.59284 1.24684,-1.1688 1.9042,-1.71712 h 0.0267 c 0.6386,-0.5443 1.32329,-1.09086 1.99773,-1.59017 l 0.0935,-0.0668 c 0.24088,-0.1615 0.50465,-0.31179 0.74832,-0.46769 l 0.0935,-0.0935 c 0.36971,-0.25675 0.7438,-0.50465 1.12247,-0.74832 0.57417,-0.36506 1.15369,-0.6961 1.74719,-1.02893 l 0.0267,-0.0267 c 0.76183,-0.41452 1.54883,-0.7955 2.33849,-1.15588 l 0.0301,-0.0267 c 0.62833,-0.29409 1.25675,-0.5541 1.90086,-0.81179 v -0.0267 c 0.7805,-0.3025 1.60232,-0.56251 2.40196,-0.81179 h 0.0267 c 0.61059,-0.20354 1.22023,-0.42285 1.84072,-0.59465 h 0.0668 c 1.13295,-0.28008 2.27649,-0.51306 3.4309,-0.68484 h 0.12361 c 0.31089,-0.056 0.5935,-0.10761 0.90533,-0.15701 1.54616,-0.20352 3.1208,-0.33328 4.68032,-0.34075 z M 1121.7109,341.15101 c -16.131,-0.002 -32.2425,1.11288 -48.2186,3.33733 -27.2503,3.79758 -53.9567,10.80131 -79.56388,20.86562 -28.27564,11.11119 -54.98048,25.86347 -79.43943,43.88352 -0.33797,0.24929 -0.66099,0.49855 -0.99804,0.74876 h 7.61021 87.54864 v 33.43503 c 20.659,-9.45167 42.4419,-16.29799 64.8425,-20.33542 v 73.66932 1.06039 79.84485 3.1813 76.66352 79.84483 62.75298 17.09185 h 68.3988 a 11.134615,11.134615 0 0 0 11.1344,-11.13461 v -68.71022 h 78.7843 c 0.2241,-0.43507 0.4388,-0.872 0.6535,-1.30996 v -78.53487 h 4.2722 0.1214 55.7044 a 19.446579,19.446579 0 0 0 19.4621,-19.46222 v -7.82848 -52.55412 -79.84485 -1.27876 c 0.4295,0.42479 0.8496,0.85145 1.2783,1.27876 8.0206,8.01633 15.5307,16.52683 22.488,25.48172 1.5936,2.22193 3.1529,4.46784 4.6784,6.73691 5.3309,7.15301 10.3062,14.56434 14.908,22.20686 1.983,3.54364 3.8856,7.13136 5.7081,10.76033 2.5479,4.81299 4.9509,9.70159 7.2048,14.65903 1.0559,2.08672 2.0857,4.18699 3.0874,6.30023 1.2725,3.04454 2.4891,6.11204 3.6495,9.20092 2.9409,7.67583 5.5327,15.48116 7.7658,23.39199 0.9243,3.08234 1.802,6.18102 2.6198,9.29446 2.6206,10.42468 4.6214,20.99567 5.9891,31.65722 h 0.1587 v 1.34115 c 1.2277,10.49722 1.8421,21.0572 1.8402,31.62604 0,10.56885 -0.6161,21.12881 -1.8402,31.62605 -0.8028,5.10988 -1.7467,10.19577 -2.8382,15.25159 -0.7562,4.7635 -1.6422,9.50592 -2.6514,14.22237 -0.6816,3.21519 -1.4182,6.41789 -2.2145,9.60628 -2.8393,10.69301 -6.3281,21.20266 -10.4481,31.47014 -0.5229,1.14723 -1.0532,2.29091 -1.5909,3.43077 -3.1455,7.18457 -6.5999,14.22965 -10.3548,21.11527 -0.8869,1.8608 -1.7888,3.71141 -2.7141,5.55167 -1.6422,2.86892 -3.3377,5.70759 -5.0835,8.5147 -4.2816,7.04649 -8.8815,13.89448 -13.7858,20.52261 -1.8374,2.55886 -3.7187,5.08561 -5.6447,7.57902 -6.8817,8.7861 -14.2983,17.13993 -22.207,25.01389 v 12.66294 79.84473 6.51863 c 3.2593,-2.11894 6.4821,-4.29213 9.6685,-6.51863 2.1091,-1.66006 4.1994,-3.34439 6.2692,-5.05265 8.5091,-6.23665 16.7296,-12.85554 24.6392,-19.83639 3.2331,-2.77977 6.4159,-5.61844 9.5443,-8.5147 10.4332,-9.78452 20.2559,-20.20061 29.4118,-31.1894 4.0903,-4.97366 8.0422,-10.05946 11.8513,-15.25159 2.717,-4.07169 5.3479,-8.19998 7.8911,-12.3822 4.0883,-6.00047 7.9899,-12.12697 11.6963,-18.37054 4.1051,-7.16992 7.9536,-14.48322 11.5395,-21.92613 3.2462,-6.41265 6.2945,-12.92389 9.1392,-19.52457 1.2166,-2.53272 2.4004,-5.08 3.5553,-7.64139 2.1678,-6.11865 4.1648,-12.29659 5.9882,-18.52654 1.771,-5.07617 3.4245,-10.19259 4.9594,-15.34514 2.7402,-10.28745 5.0098,-20.69477 6.7995,-31.1894 0.8963,-4.17439 1.7197,-8.36484 2.4638,-12.5693 0.1487,-0.73756 0.2988,-1.47587 0.4389,-2.21445 1.9185,-14.20715 2.9595,-28.51896 3.1192,-42.85421 v -8.04686 c -0.1123,-9.6649 -0.6162,-19.32114 -1.5283,-28.94376 -0.4575,-3.33404 -0.9711,-6.66128 -1.5284,-9.98056 -0.7749,-5.95929 -1.6973,-11.89767 -2.7757,-17.80915 -1.5815,-8.88749 -3.5047,-17.71029 -5.7697,-26.44867 -1.4005,-5.60983 -2.9391,-11.184 -4.6159,-16.71746 -0.7841,-2.97368 -1.6039,-5.93699 -2.4647,-8.88898 -2.0456,-5.2815 -4.219,-10.51246 -6.5185,-15.68825 -2.4246,-6.37532 -5.035,-12.67827 -7.8284,-18.90074 -3.7485,-7.79907 -7.7844,-15.45614 -12.1016,-22.95544 -3.122,-5.83101 -6.4074,-11.5721 -9.8552,-17.21648 -0.9523,-1.70274 -1.9196,-3.39744 -2.9007,-5.08394 -6.6736,-10.09782 -13.8671,-19.84208 -21.5517,-29.19322 -15.2245,-18.50525 -32.3136,-35.39487 -50.9952,-50.40205 l -0.3455,-0.24926 c -9.0532,-7.27411 -18.4633,-14.09223 -28.1952,-20.42898 -12.2809,-7.97656 -25.0509,-15.15814 -38.2075,-21.52075 -22.2061,-10.73961 -41.3564,3.16796 -41.3564,27.85218 v 14.09755 24.39012 55.4547 26.5734 53.27143 h -70.52 -0.7468 -8.1721 v -2.80702 -77.03781 -4.49126 -72.73365 -2.61991 -44.07053 c 0,-17.3177 -14.0023,-32.7505 -31.3144,-32.74893 z m 110.7542,394.88881 c -0.1774,0.43786 -0.3547,0.87387 -0.5321,1.30997 h 0.5321 z M 825.63045,505.79979 c -1.08366,1.91316 -2.13406,3.8366 -3.1813,5.77004 -4.14994,6.69591 -8.07058,13.53028 -11.75838,20.49143 -2.91755,5.99178 -5.66378,12.06581 -8.23403,18.21461 -3.22473,7.10278 -6.20932,14.31154 -8.95136,21.6142 -0.82158,1.91616 -1.61824,3.83961 -2.40154,5.77005 -1.5414,5.1026 -2.96593,10.23984 -4.27299,15.4076 -1.89804,6.17841 -3.62477,12.40825 -5.17737,18.68236 -1.58996,7.34636 -2.94174,14.74211 -4.05462,22.17568 -1.13527,6.20016 -2.10241,12.42992 -2.90067,18.68246 -0.26141,1.63047 -0.51535,3.26272 -0.74876,4.89673 -0.37251,3.92447 -0.66566,7.85584 -0.90467,11.78955 0.15778,-0.28102 0.30529,-0.56204 0.46774,-0.84212 l 0.0654,-0.12503 c 0.42573,-0.6694 0.87853,-1.31977 1.34114,-1.96489 0.59286,-0.90655 1.21222,-1.79125 1.87135,-2.65111 l 0.0654,-0.0933 c 0.60686,-0.72916 1.24805,-1.43375 1.90253,-2.1209 0.59564,-0.65633 1.2053,-1.28448 1.84017,-1.90252 l 0.0281,-0.0281 c 0.71888,-0.69088 1.44887,-1.35665 2.21445,-1.99618 0.78237,-0.66566 1.57351,-1.29381 2.40162,-1.90252 l 0.12503,-0.0654 c 0.2885,-0.19513 0.57885,-0.40521 0.87294,-0.59286 0.4304,-0.29876 0.86827,-0.59005 1.30997,-0.87294 0.68153,-0.4332 1.38483,-0.82252 2.08971,-1.21631 l 0.0281,-0.0281 c 0.89533,-0.48828 1.78545,-0.94846 2.71347,-1.37233 0.73943,-0.34544 1.48754,-0.66473 2.24563,-0.96694 h 0.0281 c 0.91681,-0.35571 1.8368,-0.67502 2.77584,-0.96686 0.71421,-0.23621 1.42666,-0.45654 2.15208,-0.6554 l 0.0933,-0.0281 c 1.30333,-0.3249 2.6019,-0.57884 3.92988,-0.77957 0.39024,-0.0746 0.79264,-0.15311 1.18522,-0.21846 h 0.0654 c 1.81299,-0.23995 3.66062,-0.36785 5.48931,-0.37439 2.43001,0.0187 4.87507,0.25767 7.26709,0.68622 1.12417,0.17551 2.23061,0.39118 3.33731,0.65539 l 0.15593,0.0281 c 0.66473,0.19698 1.3417,0.39491 1.99616,0.62365 l -0.18765,-0.0281 c 0.96116,0.27915 1.93025,0.58911 2.86947,0.93567 l 0.0933,0.0281 c 0.76276,0.3109 1.53281,0.675 2.27681,1.02923 0.92148,0.41546 1.82374,0.86265 2.71347,1.34114 l 0.0933,0.0279 c 0.58911,0.33705 1.14219,0.69649 1.71543,1.06041 h 0.0281 c 0.51815,0.31929 1.05537,0.65726 1.55952,0.99804 l 0.12518,0.0933 c 0.31183,0.19045 0.62925,0.39492 0.93567,0.59284 l 0.15592,0.0933 c 0.48828,0.35852 0.96134,0.74411 1.43469,1.12277 0.83465,0.66754 1.65045,1.33032 2.43282,2.05855 l 0.0654,0.0654 c 0.41359,0.36691 0.81784,0.7721 1.2164,1.15405 h 0.0281 c 1.18972,1.17486 2.29251,2.43721 3.33722,3.7427 2.73187,3.45457 4.90823,7.29398 6.45627,11.35298 0.33049,-5.90542 0.84399,-11.81055 1.55941,-17.68441 0.17739,-1.04072 0.36504,-2.0804 0.56111,-3.11894 0.38278,-2.42788 0.8029,-4.85052 1.2475,-7.26711 1.44711,-8.95742 3.34151,-17.83668 5.6765,-26.60458 0.88693,-3.33414 1.82895,-6.65129 2.8382,-9.94939 2.95023,-9.6791 6.43767,-19.18594 10.4485,-28.47591 0.44813,-1.16759 0.90561,-2.332 1.37231,-3.49324 0.12139,-0.31182 0.25302,-0.62365 0.37439,-0.93566 3.88851,-8.10915 8.17729,-16.02016 12.85004,-23.70393 1.51714,-2.91849 3.08692,-5.80916 4.70954,-8.67061 6.36569,-10.08514 13.38847,-19.75154 21.02164,-28.91258 v -10.57313 h -50.52687 -20.92809 z m 24.92033,199.67438 c -1.55485,4.16843 -3.75192,8.09569 -6.54979,11.63364 -8.14275,10.29603 -20.52645,16.31228 -33.65332,16.31209 -15.87749,-2.8e-4 -29.77672,-8.6736 -37.20889,-21.52065 0.50601,7.81569 1.27327,15.62428 2.30799,23.392 0.12139,0.68621 0.24369,1.3727 0.37439,2.05854 1.00176,6.50918 2.18691,12.98877 3.55559,19.43093 1.10167,6.57491 2.39138,13.11696 3.86741,19.61812 2.20148,8.00821 4.68799,15.93538 7.45429,23.76638 1.56942,5.30006 3.26515,10.56212 5.08385,15.78179 0.18672,0.41641 0.37437,0.83185 0.56109,1.24761 3.68313,9.15067 7.751,18.14122 12.19502,26.94758 1.477,3.32976 3.00514,6.63625 4.58483,9.91821 6.55212,12.38296 13.84266,24.36053 21.83257,35.86784 1.81961,2.39418 3.67052,4.76483 5.55176,7.11119 3.5188,4.77023 7.15936,9.45019 10.91624,14.03519 2.88954,3.69806 5.85286,7.33758 8.88898,10.91624 5.56716,6.14021 11.35121,12.08036 17.34132,17.80914 1.39155,1.4401 2.79469,2.85715 4.21052,4.27299 10.61776,-3.06349 21.05067,-6.77901 31.25176,-11.10343 v -35.93013 -32.53053 c -6.87909,-8.35486 -13.25328,-17.11408 -19.08792,-26.23029 -1.87845,-2.99991 -3.69826,-6.03631 -5.45813,-9.10736 -2.4937,-3.93008 -4.88525,-7.92362 -7.17355,-11.97664 -1.65064,-3.3769 -3.23116,-6.7877 -4.74082,-10.23013 -1.49285,-3.07087 -2.92792,-6.16955 -4.30407,-9.29446 -4.09112,-9.44897 -7.64242,-19.12293 -10.6356,-28.97493 -0.39211,-1.12035 -0.77491,-2.24312 -1.15404,-3.36851 -2.64401,-9.20529 -4.799,-18.5439 -6.45616,-27.9768 -0.27075,-1.91029 -0.52469,-3.82336 -0.74876,-5.73887 -0.34545,-2.40771 -0.65353,-4.8199 -0.93568,-7.23591 -0.84212,-6.27914 -1.47026,-12.58117 -1.87134,-18.90084 z m 158.09902,232.01784 v 39.39217 10.85396 l -3.6492,2.37038 c -9.66898,6.28181 -19.63878,12.09538 -29.84825,17.40368 6.17267,2.8776 12.44237,5.565 18.77607,8.078 25.60808,10.0538 52.31448,17.0471 79.56388,20.8346 v -59.54062 -19.05665 c -22.4006,-4.03743 -44.1835,-10.88375 -64.8425,-20.33552 z M 815.18751,655.96346 c -1.35502,0.007 -2.7216,0.1209 -4.06506,0.29771 -0.27092,0.0406 -0.51586,0.0867 -0.786,0.13547 h -0.10878 c -1.00304,0.14927 -1.99661,0.35288 -2.98105,0.59625 h -0.0565 c -0.5394,0.14924 -1.06829,0.33826 -1.59883,0.5151 h -0.0243 c -0.69441,0.2166 -1.40854,0.44211 -2.08671,0.70495 v 0.0244 c -0.55973,0.22389 -1.10713,0.4494 -1.65304,0.70493 l -0.0243,0.0244 c -0.68633,0.31314 -1.37058,0.64248 -2.03249,1.00266 l -0.0243,0.0244 c -0.51595,0.28879 -1.01868,0.57677 -1.51759,0.89435 -0.3294,0.21172 -0.65462,0.42751 -0.97558,0.65059 l -0.0808,0.0811 c -0.21175,0.13547 -0.44131,0.26608 -0.65053,0.40641 l -0.0808,0.0568 c -0.58571,0.43399 -1.17959,0.90911 -1.73446,1.38204 h -0.0243 c -0.57112,0.47618 -1.11608,0.9754 -1.65305,1.49051 -0.4738,0.46158 -0.93761,0.94635 -1.38213,1.43632 l -0.0565,0.0568 c -0.47945,0.50132 -0.93674,1.01335 -1.38204,1.54469 v 0.0244 l -0.0243,0.0244 -0.0243,0.0244 c -0.46972,0.61651 -0.93075,1.24804 -1.35502,1.89701 l -0.0565,0.10863 c -0.34712,0.48267 -0.68216,0.9629 -1.00269,1.46341 v 0.0244 h -0.0243 v 0.0244 l -0.0243,0.0244 c -0.40403,0.70169 -0.76175,1.41084 -1.11113,2.14092 l -0.0565,0.0811 c -0.27179,0.5143 -0.54271,1.0437 -0.78608,1.5718 -1.71422,3.98885 -2.59692,8.28694 -2.60161,12.62858 2.6e-4,17.74041 14.31884,32.05891 32.05925,32.05915 9.80621,1.7e-4 19.06572,-4.4763 25.14877,-12.16782 4.47848,-5.66327 6.91057,-12.67135 6.91048,-19.89133 9e-5,-7.22004 -2.432,-14.22812 -6.91048,-19.89138 -0.7707,-0.96315 -1.58962,-1.86902 -2.46615,-2.73709 -0.31158,-0.29853 -0.62551,-0.58164 -0.94848,-0.86717 l -0.0565,-0.0568 c -0.5971,-0.55812 -1.23156,-1.08783 -1.86993,-1.59889 -0.35285,-0.28311 -0.69197,-0.57271 -1.0569,-0.84008 -0.21983,-0.14034 -0.45426,-0.27176 -0.67738,-0.40642 l -0.13546,-0.0811 c -0.41941,-0.28555 -0.81423,-0.54757 -1.24659,-0.81308 l -0.0565,-0.0568 c -0.42019,-0.26689 -0.84212,-0.51106 -1.27369,-0.75848 -0.66435,-0.35774 -1.3446,-0.69277 -2.03258,-1.00265 l -0.0565,-0.0244 c -0.55078,-0.26445 -1.08758,-0.49971 -1.65305,-0.7317 -0.70171,-0.25798 -1.42297,-0.49648 -2.14092,-0.70495 l -0.13546,-0.0568 c -0.4778,-0.16631 -0.95125,-0.31718 -1.43635,-0.46077 -0.80876,-0.18982 -1.64462,-0.36099 -2.46606,-0.48752 h -0.0565 c -1.77582,-0.318 -3.58884,-0.47132 -5.3929,-0.48754 z" />
    <rect
       style="opacity:1;fill:#000000;stroke:none;stroke-width:0;stroke-linecap:square;stroke-linejoin:miter;stroke-dasharray:none"
       id="rect107"
       width="39.005154"
       height="15.723008"
       x="675.68567"
       y="649.77161" />
    <rect
       style="opacity:1;fill:#000000;stroke:none;stroke-width:0;stroke-linecap:square;stroke-linejoin:miter;stroke-dasharray:none"
       id="rect108"
       width="39.005154"
       height="15.723008"
       x="688.16699"
       y="729.36877" />
  </g>
</svg>
